<?xml version="1.0" standalone="no"?>
<!DOCTYPE svg PUBLIC "-//W3C//DTD SVG 20010904//EN"
 "http://www.w3.org/TR/2001/REC-SVG-20010904/DTD/svg10.dtd">
<svg version="1.0" xmlns="http://www.w3.org/2000/svg"
 width="574.000000pt" height="435.000000pt" viewBox="0 0 574.000000 435.000000"
 preserveAspectRatio="xMidYMid meet">

<g transform="translate(0.000000,435.000000) scale(0.100000,-0.100000)"
fill="#000000" stroke="none">
<path d="M610 4055 c0 -20 9 -61 20 -92 38 -107 22 -158 -50 -165 -19 -2 -34
-7 -33 -12 2 -9 134 -56 157 -56 12 0 108 -66 175 -120 24 -19 70 -66 103
-105 67 -78 81 -100 252 -400 44 -76 101 -167 128 -202 129 -172 347 -563 423
-762 49 -129 53 -177 20 -248 -27 -60 -68 -216 -69 -268 -1 -29 0 -30 59 -36
127 -14 162 -32 260 -133 50 -50 115 -114 145 -141 30 -27 104 -93 163 -147
117 -106 240 -201 275 -212 12 -4 49 -34 82 -66 34 -32 74 -63 90 -70 42 -17
47 -44 16 -89 -37 -52 -165 -180 -200 -198 -18 -9 -79 -19 -150 -25 -195 -15
-225 -38 -118 -90 l67 -33 5 -64 c8 -100 27 -101 137 -9 46 38 85 46 283 58
96 5 191 13 210 16 51 8 71 -11 73 -71 3 -72 23 -70 103 10 37 36 79 68 93 72
14 3 232 3 486 0 253 -3 676 -2 940 2 524 9 518 10 531 -47 12 -60 22 -72 58
-72 40 0 41 4 51 135 9 118 -12 612 -30 695 -8 36 -19 157 -25 270 -6 113 -17
279 -25 370 -22 240 -20 341 5 373 22 27 26 52 10 62 -6 4 -20 25 -31 47 -16
31 -22 67 -26 152 -4 95 -1 130 22 240 25 124 26 135 15 230 -18 148 -31 155
-119 72 -63 -60 -106 -83 -126 -66 -23 19 -37 103 -36 215 1 123 -9 153 -48
140 -24 -7 -50 -45 -156 -225 -81 -138 -173 -252 -215 -270 -43 -18 -80 -7
-161 45 -180 117 -254 180 -554 474 -121 119 -247 237 -279 261 -102 78 -130
119 -90 134 22 9 92 7 135 -3 20 -5 54 -5 75 -2 33 5 39 10 42 34 2 19 -2 29
-15 33 -61 21 -204 91 -237 115 -47 34 -92 37 -157 12 -40 -16 -116 -18 -944
-21 -890 -3 -1050 2 -1226 31 -83 14 -215 55 -269 82 -14 7 -68 34 -120 61
-52 26 -116 63 -141 81 -26 18 -49 33 -53 33 -3 0 -6 -16 -6 -35z m2150 -391
c538 -9 571 -14 536 -82 -25 -48 -168 -189 -199 -197 -17 -5 -51 -1 -86 9 -31
9 -71 16 -87 16 -16 0 -61 8 -99 19 -39 10 -106 22 -150 25 -44 4 -111 13
-150 20 -38 8 -151 17 -250 21 -99 4 -202 11 -230 15 -222 36 -250 42 -305 70
-33 17 -60 34 -60 39 0 14 70 43 124 51 50 7 274 6 956 -6z m-1214 -367 c65
-45 86 -61 229 -172 50 -39 103 -79 119 -90 16 -11 41 -29 56 -40 46 -33 229
-159 264 -180 17 -11 47 -31 66 -45 19 -14 42 -29 50 -35 9 -5 33 -21 53 -34
62 -39 60 -90 -8 -179 -19 -26 -61 -85 -92 -132 -31 -47 -77 -111 -102 -144
-25 -32 -58 -76 -72 -98 -32 -49 -83 -91 -106 -86 -9 2 -22 21 -30 43 -7 22
-20 54 -28 72 -8 17 -15 36 -15 43 0 18 -175 422 -225 521 -24 47 -73 133
-108 191 -138 230 -187 370 -139 397 24 14 20 16 88 -32z m453 8 c47 -9 97
-20 111 -26 14 -5 61 -15 105 -23 44 -8 94 -19 110 -24 31 -11 142 -35 250
-53 33 -6 74 -15 90 -21 17 -5 48 -14 70 -19 76 -18 95 -29 95 -58 0 -33 -58
-112 -153 -208 -76 -77 -104 -88 -154 -60 -26 14 -242 161 -348 237 -38 27
-104 72 -145 99 -139 92 -170 127 -138 159 15 15 5 15 107 -3z m1682 -38 c68
-40 94 -107 42 -107 -66 0 -253 77 -253 104 0 51 126 53 211 3z m-288 -202
c15 -8 53 -19 84 -24 30 -6 61 -15 67 -19 6 -5 58 -23 116 -41 58 -18 125 -42
150 -52 25 -10 81 -32 126 -49 103 -39 176 -83 283 -172 189 -157 207 -178
196 -230 -6 -23 -82 -131 -106 -148 -4 -3 -30 -34 -59 -70 -29 -36 -113 -130
-188 -208 l-137 -144 -40 5 c-46 5 -70 15 -140 57 -27 16 -63 37 -80 46 -16 9
-64 42 -105 73 -41 31 -85 63 -97 71 -12 8 -66 47 -120 85 -54 39 -127 88
-163 109 -97 58 -378 247 -396 267 -9 10 -14 27 -12 38 5 31 344 368 398 396
54 29 177 34 223 10z m1678 -454 c22 -18 23 -21 10 -58 -16 -46 -71 -121 -154
-211 -115 -125 -180 -201 -282 -332 -130 -168 -204 -259 -288 -352 -42 -48
-57 -58 -84 -58 -17 0 -35 5 -39 11 -3 6 -23 18 -43 26 -132 54 -147 66 -133
102 4 10 130 144 279 298 335 342 522 511 627 567 58 31 76 32 107 7z m-2326
-140 c22 -21 81 -69 130 -106 50 -38 110 -85 135 -105 58 -47 211 -148 294
-195 35 -19 70 -42 76 -50 7 -8 17 -15 23 -15 5 0 48 -26 96 -58 47 -32 109
-70 136 -86 120 -69 155 -96 155 -123 0 -18 -17 -44 -52 -82 -29 -31 -121
-128 -204 -216 -83 -88 -194 -209 -247 -270 -53 -60 -112 -121 -132 -134 -49
-33 -96 -25 -175 30 -120 84 -110 78 -345 204 -49 27 -160 95 -246 152 -166
110 -193 138 -169 182 14 28 0 54 -62 109 -60 54 -61 76 -8 143 46 58 53 85
13 47 -63 -59 -103 -57 -103 5 0 21 12 43 43 77 23 26 53 62 67 80 35 47 141
153 208 209 31 26 103 94 159 151 97 98 103 102 135 96 18 -3 51 -24 73 -45z
m2412 -196 c23 -129 32 -209 38 -340 3 -71 12 -173 20 -225 8 -52 19 -160 25
-240 6 -80 16 -159 21 -177 14 -44 28 -404 17 -425 -17 -34 -79 -15 -149 46
-19 17 -93 76 -164 131 -71 55 -151 118 -178 140 -27 22 -59 47 -71 55 -58 40
-247 177 -292 211 -28 21 -56 50 -64 64 -12 22 -10 29 16 67 16 24 49 66 74
94 25 28 65 77 90 110 84 110 173 209 350 387 175 176 177 178 216 175 l39 -3
12 -70z m-1122 -699 c43 -41 45 -75 8 -114 -66 -69 -154 -165 -235 -258 -47
-54 -122 -133 -165 -176 -44 -42 -115 -125 -159 -185 -43 -59 -83 -112 -89
-118 -6 -5 -19 -22 -28 -37 -9 -15 -44 -57 -78 -93 -52 -55 -70 -68 -123 -84
-89 -27 -243 -48 -264 -34 -34 21 -25 44 45 112 37 37 133 142 213 232 79 90
191 209 249 264 58 55 200 195 315 312 189 190 214 212 244 213 24 0 42 -9 67
-34z m262 -233 c41 -32 99 -76 129 -98 82 -61 221 -166 264 -200 37 -29 65
-48 138 -98 98 -66 351 -251 375 -274 36 -35 35 -58 -5 -73 -18 -6 -49 -18
-68 -27 -27 -12 -106 -17 -355 -24 -176 -5 -486 -16 -690 -24 -564 -23 -586
-22 -593 37 -3 21 7 38 37 70 23 23 41 45 41 49 0 4 31 47 69 95 38 49 78 100
89 114 11 14 60 82 108 150 85 122 180 240 263 329 38 41 43 43 81 38 30 -4
62 -21 117 -64z"/>
</g>
</svg>
