<?xml version="1.0" encoding="UTF-8"?>
<svg version="1.1" xmlns="http://www.w3.org/2000/svg" width="332" height="376">
<path d="M0 0 C1.02728714 -0.01393799 2.05457428 -0.02787598 3.11299133 -0.04223633 C6.4062254 -0.07680982 9.69877957 -0.08967285 12.9921875 -0.09375 C14.11456818 -0.09576416 15.23694885 -0.09777832 16.39334106 -0.09985352 C32.93885767 -0.07972497 48.21873944 0.51572265 63.8671875 6.40625 C64.71571289 6.7165918 65.56423828 7.02693359 66.43847656 7.34667969 C72.04441069 9.44329478 77.46141172 11.84335721 82.8671875 14.40625 C83.56102539 14.72319824 84.25486328 15.04014648 84.96972656 15.36669922 C98.80526554 21.68805277 110.86282172 30.1951695 122.8671875 39.46875 C123.47320801 39.93385986 124.07922852 40.39896973 124.70361328 40.87817383 C126.13145494 42.00531798 127.50556907 43.19994117 128.8671875 44.40625 C128.8671875 45.06625 128.8671875 45.72625 128.8671875 46.40625 C129.66962891 46.71175781 129.66962891 46.71175781 130.48828125 47.0234375 C133.85837922 48.9824107 136.31024573 51.69245376 138.9296875 54.53125 C139.49969482 55.14871094 140.06970215 55.76617187 140.65698242 56.40234375 C155.9766546 73.39723922 167.1642063 94.17470818 174.5546875 115.71875 C174.84029541 116.53545166 175.12590332 117.35215332 175.42016602 118.19360352 C180.4431651 133.33614394 181.40142199 147.92918932 181.36816406 163.76708984 C181.36719511 167.00579799 181.40889173 170.24210223 181.453125 173.48046875 C181.63595409 205.82784009 170.70952287 235.64274695 152.8671875 262.40625 C146.2251905 261.77964651 146.2251905 261.77964651 144.60668945 260.09155273 C141.95562122 257.52308621 138.66982337 256.26160696 135.34765625 254.75390625 C134.61146561 254.41250107 133.87527496 254.07109589 133.11677551 253.71934509 C130.76558043 252.62954834 128.41057504 251.54836128 126.0546875 250.46875 C123.70977361 249.39217859 121.36588144 248.31360723 119.0247345 247.22886658 C117.57003365 246.55499219 116.11317807 245.88574294 114.65385437 245.22193909 C110.43805862 243.27082256 106.66740349 241.08132651 102.8671875 238.40625 C103.42914929 233.10893375 105.26182535 229.14833434 107.6171875 224.46875 C122.09564886 194.66414977 125.59609094 161.12678663 114.66943359 129.54248047 C104.52348798 102.52573546 83.28494504 80.61255018 57.171875 68.68359375 C44.93573594 63.35608827 32.15951285 61.02281079 18.8671875 60.40625 C17.97386719 60.34179688 17.08054688 60.27734375 16.16015625 60.2109375 C3.14561874 59.66487299 -11.4386669 62.65767307 -23.1328125 68.40625 C-24.41000357 69.00162971 -25.68736322 69.59664786 -26.96484375 70.19140625 C-34.71005125 73.86403757 -41.66941963 77.69960754 -48.1328125 83.40625 C-48.95910156 84.10234375 -49.78539063 84.7984375 -50.63671875 85.515625 C-55.34610242 89.27543476 -55.34610242 89.27543476 -58.1328125 94.40625 C-59.6178125 94.90125 -59.6178125 94.90125 -61.1328125 95.40625 C-62.80844249 97.24557386 -64.3205799 99.05622371 -65.8203125 101.03125 C-66.25947998 101.60883057 -66.69864746 102.18641113 -67.15112305 102.78149414 C-84.83734875 126.69711264 -90.76532919 156.52751804 -87.4453125 185.78125 C-83.35712869 212.59409693 -71.28828582 238.2048575 -49.27612305 254.85644531 C-35.93494675 264.51656952 -19.47747906 270.4666829 -3.1328125 272.40625 C-1.91851562 272.55191406 -0.70421875 272.69757813 0.546875 272.84765625 C11.71259256 273.94656457 22.21031953 272.54177836 33.24707031 270.81152344 C54.13297346 267.58094207 74.55973968 266.03539231 93.8671875 276.40625 C94.61613281 276.79039062 95.36507812 277.17453125 96.13671875 277.5703125 C111.06812722 285.81997599 122.78067331 299.12669166 134.62890625 311.15332031 C139.55913307 316.15147208 144.48793208 321.07396894 149.83398438 325.63305664 C154.35670478 329.57740322 158.6348299 333.78001105 162.9296875 337.96875 C163.41816162 338.42983154 163.90663574 338.89091309 164.40991211 339.3659668 C165.84047256 340.71769802 167.24684193 342.09488808 168.65234375 343.47265625 C169.48644775 344.27646729 170.32055176 345.08027832 171.17993164 345.90844727 C172.8671875 348.40625 172.8671875 348.40625 172.6940918 351.56591797 C169.78155018 361.57020174 162.8548157 369.10694467 153.8046875 374.09375 C145.30829779 377.89000923 135.11875508 377.52702337 126.3984375 374.51171875 C115.54862693 369.77329839 106.09427195 362.85568808 97.8671875 354.40625 C96.8565625 353.58125 95.8459375 352.75625 94.8046875 351.90625 C91.8671875 349.40625 91.8671875 349.40625 90.09765625 347.0390625 C87.50097417 343.97397717 84.60715869 341.90275384 81.2421875 339.78125 C80.62335693 339.38808594 80.00452637 338.99492187 79.36694336 338.58984375 C69.65380508 332.6163957 59.52005706 331.00787513 48.2421875 331.71875 C47.4282251 331.76507568 46.6142627 331.81140137 45.77563477 331.85913086 C38.58252009 332.29737689 31.41367485 332.96980268 24.24951172 333.74536133 C15.14204685 334.69484009 6.28070755 334.53563965 -2.8203125 333.59375 C-3.68897949 333.50391846 -4.55764648 333.41408691 -5.45263672 333.3215332 C-13.13893066 332.48046901 -20.60385711 331.20035071 -28.1328125 329.40625 C-28.8148877 329.24817871 -29.49696289 329.09010742 -30.19970703 328.92724609 C-51.78864112 323.82707435 -71.19521139 314.02495586 -88.70410156 300.49291992 C-89.35088867 299.99381104 -89.99767578 299.49470215 -90.6640625 298.98046875 C-91.23705078 298.53276123 -91.81003906 298.08505371 -92.40039062 297.6237793 C-94.13805543 296.3379804 -94.13805543 296.3379804 -96.24047852 295.35595703 C-98.63126721 294.15609017 -99.86994208 292.64754615 -101.5703125 290.59375 C-103.49764227 288.31599664 -105.39590243 286.14316007 -107.5078125 284.03125 C-124.64957168 266.88949082 -137.43507037 246.49215972 -145.1953125 223.46875 C-145.45787842 222.69072021 -145.72044434 221.91269043 -145.9909668 221.11108398 C-146.79163937 218.55892364 -147.47896237 216.00002073 -148.1328125 213.40625 C-148.40657715 212.34470703 -148.6803418 211.28316406 -148.96240234 210.18945312 C-151.67440643 198.04096243 -151.65679281 185.8858828 -151.63378906 173.48193359 C-151.63281976 169.80876466 -151.67450451 166.13771137 -151.71875 162.46484375 C-151.91473593 123.80535804 -137.86058892 87.33209882 -112.1328125 58.40625 C-110.46866155 56.73707141 -108.80217822 55.07021324 -107.1328125 53.40625 C-106.17998115 52.29420519 -105.24020429 51.170693 -104.3203125 50.03125 C-97.69512944 42.24875648 -89.31796591 36.4308553 -81.1328125 30.40625 C-80.19953125 29.69984375 -79.26625 28.9934375 -78.3046875 28.265625 C-56.19981034 11.71854553 -27.79142098 0.25485321 0 0 Z " fill="#48BEFD" transform="translate(151.1328125,-0.40625)"/>
<path d="M0 0 C2.14892773 2.14892773 2.66521343 3.43830929 3.6640625 6.26171875 C3.97698242 7.12571289 4.28990234 7.98970703 4.61230469 8.87988281 C4.94649414 9.80639648 5.28068359 10.73291016 5.625 11.6875 C14.06847675 34.31847175 26.88514844 52.96979686 44 70 C44.82886719 70.82886719 45.65773437 71.65773438 46.51171875 72.51171875 C79.71918255 103.91504191 124.65711059 116.34573286 169.43945312 115.12695312 C172.84864771 114.95792365 176.12617338 114.52481747 179.5 114 C192.57448437 111.97953097 207.29348425 110.88020459 219.69140625 116.0625 C222.19902762 117.20257398 222.19902762 117.20257398 225.9375 117.4375 C229.96019929 118.17636313 231.34815629 119.97984466 234 123 C234.99 123.66 235.98 124.32 237 125 C237 125.66 237 126.32 237 127 C237.66 127 238.32 127 239 127 C240.3125 128.1875 240.3125 128.1875 242 130 C244.41773826 132.48136296 246.7932231 134.83457848 249.5 137 C252 139 252 139 254.375 141.4375 C263.67750519 150.51851697 274.63641714 155.16396582 287.5 156.3125 C295.3162855 155.61461737 301.41713453 153.58286547 307 148 C307.33 147.34 307.66 146.68 308 146 C308.66 146 309.32 146 310 146 C311.92205381 141.41664092 313.45730076 136.72065967 315 132 C314.34 132 313.68 132 313 132 C311.65576661 130.34211215 310.32381517 128.67423683 309 127 C307.88625 126.1646875 307.88625 126.1646875 306.75 125.3125 C306.1725 124.879375 305.595 124.44625 305 124 C305 123.34 305 122.68 305 122 C304.01 121.67 303.02 121.34 302 121 C300.25485467 119.53407793 299.16633472 118.39994385 298.28710938 116.28588867 C296.39631061 112.92785589 293.68886982 110.42434947 290.96875 107.73828125 C290.37703003 107.1470195 289.78531006 106.55575775 289.17565918 105.94657898 C287.92725191 104.70118634 286.67642152 103.45821857 285.42333984 102.2175293 C283.50168325 100.31416723 281.5881874 98.40288615 279.67578125 96.49023438 C278.46140909 95.28077631 277.24658088 94.07177594 276.03125 92.86328125 C275.17025696 92.00395744 275.17025696 92.00395744 274.29187012 91.12727356 C271.41459811 88.20755655 271.41459811 88.20755655 268 86 C268 85.34 268 84.68 268 84 C267.43796875 83.773125 266.8759375 83.54625 266.296875 83.3125 C263.35993125 81.63424643 261.53318116 79.4958999 259.25 77 C245.99360674 63.23418477 228.74341088 55.5081938 209.703125 54.796875 C200.05644311 54.63296983 190.8137837 55.33697269 181.29394531 56.93261719 C175.77884352 57.84350689 170.59297203 58.13504158 165 58 C165 57.67 165 57.34 165 57 C168.79073089 56.34859544 172.58273657 55.70491743 176.375 55.0625 C177.43589844 54.88009766 178.49679688 54.69769531 179.58984375 54.50976562 C200.3940912 50.99984658 220.81742683 49.69621784 240 60 C240.74894531 60.38414062 241.49789062 60.76828125 242.26953125 61.1640625 C257.20093972 69.41372599 268.91348581 82.72044166 280.76171875 94.74707031 C285.69194557 99.74522208 290.62074458 104.66771894 295.96679688 109.22680664 C300.48951728 113.17115322 304.7676424 117.37376105 309.0625 121.5625 C309.79521118 122.25412231 309.79521118 122.25412231 310.54272461 122.9597168 C311.97328506 124.31144802 313.37965443 125.68863808 314.78515625 127.06640625 C315.61926025 127.87021729 316.45336426 128.67402832 317.31274414 129.50219727 C319 132 319 132 318.8269043 135.15966797 C315.91436268 145.16395174 308.9876282 152.70069467 299.9375 157.6875 C291.44111029 161.48375923 281.25156758 161.12077337 272.53125 158.10546875 C261.68143943 153.36704839 252.22708445 146.44943808 244 138 C242.989375 137.175 241.97875 136.35 240.9375 135.5 C238 133 238 133 236.23046875 130.6328125 C233.63378667 127.56772717 230.73997119 125.49650384 227.375 123.375 C226.75616943 122.98183594 226.13733887 122.58867187 225.49975586 122.18359375 C215.78661758 116.2101457 205.65286956 114.60162513 194.375 115.3125 C193.5610376 115.35882568 192.7470752 115.40515137 191.90844727 115.45288086 C184.71533259 115.89112689 177.54648735 116.56355268 170.38232422 117.33911133 C161.27485935 118.28859009 152.41352005 118.12938965 143.3125 117.1875 C142.00949951 117.05275269 142.00949951 117.05275269 140.68017578 116.9152832 C132.99388184 116.07421901 125.52895539 114.79410071 118 113 C117.3179248 112.84192871 116.63584961 112.68385742 115.93310547 112.52099609 C94.34417138 107.42082435 74.93760111 97.61870586 57.42871094 84.08666992 C56.78192383 83.58756104 56.13513672 83.08845215 55.46875 82.57421875 C54.89576172 82.12651123 54.32277344 81.67880371 53.73242188 81.2175293 C51.99475707 79.9317304 51.99475707 79.9317304 49.89233398 78.94970703 C47.50154529 77.74984017 46.26287042 76.24129615 44.5625 74.1875 C42.63517023 71.90974664 40.73691007 69.73691007 38.625 67.625 C21.36802329 50.36802329 6.08153875 27.9372194 0 4 C0 2.68 0 1.36 0 0 Z " fill="#2A4172" transform="translate(5,216)"/>
<path d="M0 0 C13.21155728 11.73918494 22.95262765 23.89018353 30.28125 40.0546875 C30.63292236 40.82965576 30.98459473 41.60462402 31.34692383 42.40307617 C33.72152868 47.92135145 33.72152868 47.92135145 32.59375 51.3046875 C32.30242187 50.64984375 32.01109375 49.995 31.7109375 49.3203125 C30.35716501 46.306253 28.9799952 43.30395151 27.59375 40.3046875 C27.13613281 39.30953125 26.67851562 38.314375 26.20703125 37.2890625 C14.01051983 11.75992627 -8.19800196 -7.67864245 -34.609375 -17.4453125 C-44.61246908 -20.7385122 -54.91311024 -22.20859115 -65.40625 -22.6953125 C-66.74623047 -22.79199219 -66.74623047 -22.79199219 -68.11328125 -22.890625 C-81.12781876 -23.43668951 -95.7121044 -20.44388943 -107.40625 -14.6953125 C-108.68344107 -14.09993279 -109.96080072 -13.50491464 -111.23828125 -12.91015625 C-118.98348875 -9.23752493 -125.94285713 -5.40195496 -132.40625 0.3046875 C-133.23253906 1.00078125 -134.05882812 1.696875 -134.91015625 2.4140625 C-139.61953992 6.17387226 -139.61953992 6.17387226 -142.40625 11.3046875 C-143.89125 11.7996875 -143.89125 11.7996875 -145.40625 12.3046875 C-147.08187999 14.14401136 -148.5940174 15.95466121 -150.09375 17.9296875 C-150.53291748 18.50726807 -150.97208496 19.08484863 -151.42456055 19.67993164 C-169.11078625 43.59555014 -175.03876669 73.42595554 -171.71875 102.6796875 C-167.63056619 129.49253443 -155.56172332 155.103295 -133.54956055 171.75488281 C-116.98556166 183.74859933 -97.16057935 189.01495407 -76.97460938 189.96386719 C-73.36008592 190.13795297 -69.93255257 190.4809759 -66.40625 191.3046875 C-66.40625 191.6346875 -66.40625 191.9646875 -66.40625 192.3046875 C-96.74861216 193.08940376 -123.63977029 185.23111319 -146.09375 164.0546875 C-159.54674496 149.99460793 -168.06798826 132.13118579 -172.40625 113.3046875 C-172.59098877 112.50675781 -172.77572754 111.70882812 -172.96606445 110.88671875 C-174.61492758 102.93086195 -174.84745585 95.03390701 -174.84375 86.9296875 C-174.84448517 86.22770233 -174.84522034 85.52571716 -174.84597778 84.80245972 C-174.81212461 72.44289282 -173.42611267 61.04009304 -169.40625 49.3046875 C-169.14392578 48.53608398 -168.88160156 47.76748047 -168.61132812 46.97558594 C-165.15300072 37.19357831 -160.65871783 28.63326434 -154.40625 20.3046875 C-153.77976562 19.45648438 -153.15328125 18.60828125 -152.5078125 17.734375 C-136.05283757 -3.69067399 -113.96621724 -18.22708395 -87.40625 -23.6953125 C-85.88257813 -24.04722656 -85.88257813 -24.04722656 -84.328125 -24.40625 C-54.38422065 -30.31825163 -22.95178377 -19.15132607 0 0 Z " fill="#1A4267" transform="translate(235.40625,82.6953125)"/>
<path d="M0 0 C0.33 0 0.66 0 1 0 C3.26408766 29.48345261 -10.98753567 59.98130351 -27 84 C-33.641997 83.37339651 -33.641997 83.37339651 -35.26049805 81.68530273 C-37.91156628 79.11683621 -41.19736413 77.85535696 -44.51953125 76.34765625 C-45.62381721 75.83554848 -45.62381721 75.83554848 -46.75041199 75.31309509 C-49.10160707 74.22329834 -51.45661246 73.14211128 -53.8125 72.0625 C-56.15741389 70.98592859 -58.50130606 69.90735723 -60.842453 68.82261658 C-62.29715385 68.14874219 -63.75400943 67.47949294 -65.21333313 66.81568909 C-69.42912888 64.86457256 -73.19978401 62.67507651 -77 60 C-76.4380019 54.70234142 -74.6047857 50.74255608 -72.25 46.0625 C-65.684001 32.50731429 -62.01453006 18.7021494 -59 4 C-58.67 4 -58.34 4 -58 4 C-57.855625 5.0725 -57.71125 6.145 -57.5625 7.25 C-57.1393216 10.76681721 -57.1393216 10.76681721 -56.3125 13.125 C-55.86411553 15.8153068 -56.97218013 17.48755142 -58 20 C-58.26152695 21.97955785 -58.43404966 23.94479462 -58.55859375 25.9375 C-59.14562265 28.68043148 -60.53552409 30.61841418 -62 33 C-62.64696931 34.67155745 -63.25031825 36.3605525 -63.8125 38.0625 C-65.69553631 43.44156108 -68.10458631 48.41641923 -70.73046875 53.46875 C-72.08703618 56.02337079 -72.08703618 56.02337079 -73 59 C-71.2984375 59.433125 -71.2984375 59.433125 -69.5625 59.875 C-68.386875 60.24625 -67.21125 60.6175 -66 61 C-65.67 61.66 -65.34 62.32 -65 63 C-63.33971586 63.4743669 -61.67768096 63.94337343 -60.0078125 64.3828125 C-56.45830365 65.47390666 -53.2790475 67.28029718 -50 69 C-47.91963307 70.06829653 -45.83612681 71.13049529 -43.75 72.1875 C-42.75484375 72.69667969 -41.7596875 73.20585937 -40.734375 73.73046875 C-38.45102651 74.79059484 -36.45609575 75.5146287 -34 76 C-34 76.66 -34 77.32 -34 78 C-31.03 78.99 -31.03 78.99 -28 80 C-27.67 78.35 -27.34 76.7 -27 75 C-26.34 75 -25.68 75 -25 75 C-25 74.01 -25 73.02 -25 72 C-24.34 72 -23.68 72 -23 72 C-22.7525 71.195625 -22.505 70.39125 -22.25 69.5625 C-21.00802158 66.02286152 -19.56515137 62.66274799 -18.0078125 59.25390625 C-17.08461656 57.18923936 -16.25927214 55.10633176 -15.4375 53 C-14.963125 52.01 -14.48875 51.02 -14 50 C-12.515 49.505 -12.515 49.505 -11 49 C-7.49869118 41.28394952 -5.56844497 32.73800865 -3.6875 24.5 C-3.51613525 23.75951416 -3.34477051 23.01902832 -3.16821289 22.25610352 C-2.06792865 17.18311155 -1.05145985 11.93185137 -2.6875 6.875 C-3 5 -3 5 -1.625 2.25 C-1.08875 1.5075 -0.5525 0.765 0 0 Z " fill="#2D3B72" transform="translate(331,178)"/>
<path d="M0 0 C0.74894531 0.38414062 1.49789062 0.76828125 2.26953125 1.1640625 C17.20093972 9.41372599 28.91348581 22.72044166 40.76171875 34.74707031 C45.69194557 39.74522208 50.62074458 44.66771894 55.96679688 49.22680664 C60.48951728 53.17115322 64.7676424 57.37376105 69.0625 61.5625 C69.55097412 62.02358154 70.03944824 62.48466309 70.54272461 62.9597168 C71.97328506 64.31144802 73.37965443 65.68863808 74.78515625 67.06640625 C75.61926025 67.87021729 76.45336426 68.67402832 77.31274414 69.50219727 C79 72 79 72 78.76342773 75.30834961 C78.51149658 76.19659424 78.25956543 77.08483887 78 78 C77.34 78 76.68 78 76 78 C75.2265625 79.7634375 75.2265625 79.7634375 74.4375 81.5625 C70.78089084 88.83709218 65.22198007 93.45714185 58 97 C49.00831831 99.93207012 37.58304841 98.68021356 29 95 C20.07097532 90.04072423 12.69008847 83.4690151 5.36621094 76.4296875 C-1.64100621 69.70025506 -8.23090501 63.42495807 -17 59 C-16.67 58.34 -16.34 57.68 -16 57 C-11.12846211 57.41756039 -9.24637715 59.49732992 -6 63 C-4.515 63.99 -4.515 63.99 -3 65 C-3 65.66 -3 66.32 -3 67 C-2.34 67 -1.68 67 -1 67 C0.3125 68.1875 0.3125 68.1875 2 70 C4.41773826 72.48136296 6.7932231 74.83457848 9.5 77 C12 79 12 79 14.375 81.4375 C23.67750519 90.51851697 34.63641714 95.16396582 47.5 96.3125 C55.3162855 95.61461737 61.41713453 93.58286547 67 88 C67.33 87.34 67.66 86.68 68 86 C68.66 86 69.32 86 70 86 C71.92205381 81.41664092 73.45730076 76.72065967 75 72 C74.34 72 73.68 72 73 72 C71.65576661 70.34211215 70.32381517 68.67423683 69 67 C67.88625 66.1646875 67.88625 66.1646875 66.75 65.3125 C66.1725 64.879375 65.595 64.44625 65 64 C65 63.34 65 62.68 65 62 C64.01 61.67 63.02 61.34 62 61 C60.25485467 59.53407793 59.16633472 58.39994385 58.28710938 56.28588867 C56.39631061 52.92785589 53.68886982 50.42434947 50.96875 47.73828125 C50.37703003 47.1470195 49.78531006 46.55575775 49.17565918 45.94657898 C47.92725191 44.70118634 46.67642152 43.45821857 45.42333984 42.2175293 C43.50168325 40.31416723 41.5881874 38.40288615 39.67578125 36.49023438 C38.46140909 35.28077631 37.24658088 34.07177594 36.03125 32.86328125 C35.45725464 32.29039871 34.88325928 31.71751617 34.29187012 31.12727356 C31.41459811 28.20755655 31.41459811 28.20755655 28 26 C28 25.34 28 24.68 28 24 C27.43796875 23.773125 26.8759375 23.54625 26.296875 23.3125 C23.35993125 21.63424643 21.53318116 19.4958999 19.25 17 C5.99360674 3.23418477 -11.25658912 -4.4918062 -30.296875 -5.203125 C-39.94355689 -5.36703017 -49.1862163 -4.66302731 -58.70605469 -3.06738281 C-64.22115648 -2.15649311 -69.40702797 -1.86495842 -75 -2 C-75 -2.33 -75 -2.66 -75 -3 C-71.20926911 -3.65140456 -67.41726343 -4.29508257 -63.625 -4.9375 C-62.56410156 -5.11990234 -61.50320312 -5.30230469 -60.41015625 -5.49023438 C-39.6059088 -9.00015342 -19.18257317 -10.30378216 0 0 Z " fill="#7A9CFB" transform="translate(245,276)"/>
<path d="M0 0 C6.55380825 0.52325814 12.2026857 1.76884192 18.375 4 C19.23351562 4.30687744 20.09203125 4.61375488 20.9765625 4.92993164 C34.86261303 10.02427492 48.0534947 16.20885698 60 25 C61.01578125 25.74378906 62.0315625 26.48757812 63.078125 27.25390625 C66.07243798 29.47707079 69.03860559 31.73325366 72 34 C72.90878906 34.67804687 73.81757813 35.35609375 74.75390625 36.0546875 C75.57761719 36.67601562 76.40132813 37.29734375 77.25 37.9375 C77.97703125 38.48277344 78.7040625 39.02804688 79.453125 39.58984375 C79.96359375 40.05519531 80.4740625 40.52054688 81 41 C81 41.66 81 42.32 81 43 C81.53496094 43.20367187 82.06992187 43.40734375 82.62109375 43.6171875 C85.99119172 45.5761607 88.44305823 48.28620376 91.0625 51.125 C91.63250732 51.74246094 92.20251465 52.35992187 92.78979492 52.99609375 C108.20308272 70.0948418 119.41633683 90.97993323 126.75 112.6875 C127.04398682 113.5544751 127.33797363 114.4214502 127.64086914 115.31469727 C130.57081647 124.24870453 132.30361624 132.58789657 132 142 C131.67 142 131.34 142 131 142 C130.88519287 141.37246826 130.77038574 140.74493652 130.65209961 140.09838867 C124.21067219 105.5500586 110.74914445 75.33840979 86 50 C84.8553125 48.7625 84.8553125 48.7625 83.6875 47.5 C63.96490357 26.71131727 37.33088836 12.04234275 10 4 C8.96359375 3.68289062 7.9271875 3.36578125 6.859375 3.0390625 C4.5769464 2.34413312 2.29178147 1.66326852 0 1 C0 0.67 0 0.34 0 0 Z " fill="#165370" transform="translate(199,3)"/>
<path d="M0 0 C2.14892773 2.14892773 2.66521343 3.43830929 3.6640625 6.26171875 C3.97698242 7.12571289 4.28990234 7.98970703 4.61230469 8.87988281 C4.94649414 9.80639648 5.28068359 10.73291016 5.625 11.6875 C14.06847675 34.31847175 26.88514844 52.96979686 44 70 C44.82886719 70.82886719 45.65773437 71.65773438 46.51171875 72.51171875 C72.99552313 97.55667467 108.18875886 110.96747369 144 115 C144 115.33 144 115.66 144 116 C134.99494195 116.50548143 126.73502012 115.08538769 118 113 C117.30487305 112.83902832 116.60974609 112.67805664 115.89355469 112.51220703 C94.3204919 107.415167 74.92386338 97.60808842 57.42871094 84.08666992 C56.78192383 83.58756104 56.13513672 83.08845215 55.46875 82.57421875 C54.89576172 82.12651123 54.32277344 81.67880371 53.73242188 81.2175293 C51.99475707 79.9317304 51.99475707 79.9317304 49.89233398 78.94970703 C47.50154529 77.74984017 46.26287042 76.24129615 44.5625 74.1875 C42.63517023 71.90974664 40.73691007 69.73691007 38.625 67.625 C21.36802329 50.36802329 6.08153875 27.9372194 0 4 C0 2.68 0 1.36 0 0 Z " fill="#1F385E" transform="translate(5,216)"/>
<path d="M0 0 C1.95050377 0.35078827 3.88630078 0.7838735 5.8125 1.25 C6.98167969 1.53101563 8.15085937 1.81203125 9.35546875 2.1015625 C11.15951172 2.54628906 11.15951172 2.54628906 13 3 C14.13050781 3.27585938 15.26101562 3.55171875 16.42578125 3.8359375 C24.43133803 5.81044601 24.43133803 5.81044601 28 7 C28 7.66 28 8.32 28 9 C28.99 8.67 29.98 8.34 31 8 C32.34400833 8.98560611 33.67607028 9.98758315 35 11 C35.845625 11.165 36.69125 11.33 37.5625 11.5 C40.40263484 12.08259176 41.16063634 12.82620659 43 15 C43.556875 15.556875 44.11375 16.11375 44.6875 16.6875 C45.120625 17.120625 45.55375 17.55375 46 18 C42.06423699 16.77876478 38.37695567 15.29202245 34.6496582 13.53759766 C9.78943335 1.97513399 -17.43715965 1.19773902 -43.21484375 10.43359375 C-61.39523999 17.7028809 -78.13739831 29.24389799 -90.18359375 44.82421875 C-90.78300781 45.54222656 -91.38242188 46.26023438 -92 47 C-92.66 47 -93.32 47 -94 47 C-94 45 -94 45 -92.8125 43.6875 C-92.214375 43.130625 -91.61625 42.57375 -91 42 C-87.73724808 38.82090839 -84.82104319 35.57332137 -82 32 C-80.375 30.1875 -80.375 30.1875 -79 29 C-78.34 29 -77.68 29 -77 29 C-77 28.34 -77 27.68 -77 27 C-76.01 27 -75.02 27 -74 27 C-74 26.34 -74 25.68 -74 25 C-71.8828125 23.2734375 -71.8828125 23.2734375 -69.125 21.375 C-67.76761719 20.42753906 -67.76761719 20.42753906 -66.3828125 19.4609375 C-64 18 -64 18 -62 18 C-61.67 17.34 -61.34 16.68 -61 16 C-58.06295544 13.9904432 -56.60777515 13 -53 13 C-53 12.34 -53 11.68 -53 11 C-49.48341642 9.0307132 -45.87887704 8.05189886 -42 7 C-40.989375 6.69320312 -39.97875 6.38640625 -38.9375 6.0703125 C-34.12520984 4.69591886 -29.23090537 3.78182968 -24.3125 2.875 C-23.34094971 2.69541748 -22.36939941 2.51583496 -21.3684082 2.33081055 C-15.12238006 1.23163897 -9.29479322 0.62210079 -2.94921875 0.95703125 C-1.98435547 0.97830078 -1.98435547 0.97830078 -1 1 C-0.67 0.67 -0.34 0.34 0 0 Z " fill="#3AEAF8" transform="translate(175,54)"/>
<path d="M0 0 C0.74894531 0.38414062 1.49789062 0.76828125 2.26953125 1.1640625 C17.20093972 9.41372599 28.91348581 22.72044166 40.76171875 34.74707031 C45.83259324 39.88739533 50.87687382 44.96587927 56.40087891 49.62792969 C58.73347441 51.62933225 60.86125298 53.79441713 63 56 C62.67 56.66 62.34 57.32 62 58 C53.21704881 50.21673431 44.92072903 41.99711094 36.68066406 33.64355469 C35.8450293 32.79954102 35.00939453 31.95552734 34.1484375 31.0859375 C33.39739746 30.3232959 32.64635742 29.5606543 31.87255859 28.77490234 C30.1141322 26.9359312 30.1141322 26.9359312 28 26 C28 25.34 28 24.68 28 24 C27.43796875 23.773125 26.8759375 23.54625 26.296875 23.3125 C23.35993125 21.63424643 21.53318116 19.4958999 19.25 17 C5.99360674 3.23418477 -11.25658912 -4.4918062 -30.296875 -5.203125 C-39.94355689 -5.36703017 -49.1862163 -4.66302731 -58.70605469 -3.06738281 C-64.22115648 -2.15649311 -69.40702797 -1.86495842 -75 -2 C-75 -2.33 -75 -2.66 -75 -3 C-71.20926911 -3.65140456 -67.41726343 -4.29508257 -63.625 -4.9375 C-62.56410156 -5.11990234 -61.50320312 -5.30230469 -60.41015625 -5.49023438 C-39.6059088 -9.00015342 -19.18257317 -10.30378216 0 0 Z " fill="#284274" transform="translate(245,276)"/>
<path d="M0 0 C0.66 0.33 1.32 0.66 2 1 C-1.42540062 4.51910459 -4.86988009 7.95584386 -8.625 11.125 C-17.57275467 18.68088172 -24.7732615 27.83987432 -32 37 C-31.67 37.66 -31.34 38.32 -31 39 C-32.485 39.495 -32.485 39.495 -34 40 C-35.25328055 41.74947608 -35.25328055 41.74947608 -36.3125 43.9375 C-38.60058182 48.28485546 -41.08181234 52.46456241 -43.66796875 56.640625 C-45.02216477 59.03925959 -46.00705813 61.43387861 -47 64 C-47.34160156 64.67804688 -47.68320312 65.35609375 -48.03515625 66.0546875 C-49.76875158 69.54995257 -50.82264836 73.28815248 -52 77 C-52.40798828 78.2684375 -52.40798828 78.2684375 -52.82421875 79.5625 C-54.33159662 84.38610917 -55.3114309 88.98328224 -56 94 C-56.495 95.175625 -56.495 95.175625 -57 96.375 C-58.20296455 99.53278194 -58.46932067 102.4652658 -58.75390625 105.81640625 C-59.18575709 109.64822563 -60.24580729 112.58014727 -62 116 C-62.23311273 109.08432232 -61.45046639 102.92854186 -59.9375 96.1875 C-59.60032959 94.68243896 -59.60032959 94.68243896 -59.25634766 93.14697266 C-53.80759994 69.75461702 -44.2028263 47.93282247 -28.80859375 29.35546875 C-26.88252629 27.18587844 -26.88252629 27.18587844 -26.5 24.8125 C-26.335 24.214375 -26.17 23.61625 -26 23 C-25.41081787 22.71044434 -24.82163574 22.42088867 -24.21459961 22.12255859 C-21.6462027 20.82066365 -20.07437029 19.28579893 -18.06640625 17.2265625 C-17.33486328 16.4840625 -16.60332031 15.7415625 -15.84960938 14.9765625 C-15.09486328 14.20054688 -14.34011719 13.42453125 -13.5625 12.625 C-4.47660055 3.32852605 -4.47660055 3.32852605 0 0 Z " fill="#35F2F8" transform="translate(63,37)"/>
<path d="M0 0 C0.99 0.495 0.99 0.495 2 1 C0.42412109 1.85271484 0.42412109 1.85271484 -1.18359375 2.72265625 C-8.93484972 6.96547816 -16.29128084 11.19264426 -23 17 C-23.82628906 17.69480469 -24.65257812 18.38960937 -25.50390625 19.10546875 C-30.21207334 22.86866457 -30.21207334 22.86866457 -33 28 C-33.99 28.33 -34.98 28.66 -36 29 C-37.67562999 30.83932386 -39.1877674 32.64997371 -40.6875 34.625 C-41.12666748 35.20258057 -41.56583496 35.78016113 -42.01831055 36.37524414 C-54.89632367 53.78911492 -61.72340527 74.4299511 -63 96 C-63.33 96 -63.66 96 -64 96 C-65.11497867 89.08713227 -64.72930581 83.75702025 -63 77 C-62.65932495 75.63403687 -62.65932495 75.63403687 -62.31176758 74.24047852 C-58.73471996 60.51988602 -53.55248116 48.39230116 -45 37 C-44.37351562 36.15179688 -43.74703125 35.30359375 -43.1015625 34.4296875 C-32.03267456 20.01754361 -17.34187571 6.43046062 0 0 Z " fill="#164D65" transform="translate(126,66)"/>
<path d="M0 0 C8.19100499 1.92402768 15.56163303 4.77314657 23.125 8.4375 C24.21522461 8.964646 25.30544922 9.49179199 26.42871094 10.03491211 C36.01985606 14.79585704 44.62703568 20.34857975 53 27 C53.88002686 27.69391846 53.88002686 27.69391846 54.77783203 28.40185547 C63.08973764 35.02551547 70.61193463 42.3723217 78 50 C77.505 50.99 77.505 50.99 77 52 C76.58637207 51.58113525 76.17274414 51.16227051 75.74658203 50.73071289 C73.87533169 48.83870591 72.00022415 46.95056815 70.125 45.0625 C69.47402344 44.40314453 68.82304687 43.74378906 68.15234375 43.06445312 C67.21455078 42.12182617 67.21455078 42.12182617 66.2578125 41.16015625 C65.6817627 40.57886963 65.10571289 39.99758301 64.51220703 39.39868164 C63.03347525 37.90048064 63.03347525 37.90048064 61 37 C61 36.34 61 35.68 61 35 C60.38125 34.896875 59.7625 34.79375 59.125 34.6875 C57 34 57 34 55 31 C53.67592331 30.31513275 52.34090759 29.65129797 51 29 C49.32854798 27.67267046 47.66313351 26.33773782 46 25 C36.31828344 17.6718499 25.83834105 12.48993884 14.56640625 8.0390625 C1.421875 2.84375 1.421875 2.84375 0 0 Z " fill="#3FEFF9" transform="translate(213,8)"/>
<path d="M0 0 C4.84357081 3.86393263 8.77584765 7.83605208 12.375 12.875 C12.84123779 13.52065918 13.30747559 14.16631836 13.7878418 14.83154297 C18.78536413 21.89457181 23.02352909 29.32429813 27 37 C27.54269531 38.04285156 28.08539063 39.08570313 28.64453125 40.16015625 C31.89870055 46.81446022 34.38105814 53.68076191 36.75 60.6875 C37.04406738 61.55463623 37.33813477 62.42177246 37.64111328 63.31518555 C40.57074817 72.24913004 42.30361195 80.58802956 42 90 C41.67 90 41.34 90 41 90 C40.88519287 89.37246826 40.77038574 88.74493652 40.65209961 88.09838867 C34.83521449 56.89976544 23.43644305 26.68475833 1.109375 3.34765625 C0 2 0 2 0 0 Z " fill="#193E62" transform="translate(289,55)"/>
<path d="M0 0 C1 3 1 3 0.06640625 5.26953125 C-4.90553256 13.67662778 -11.26053612 19.58352984 -20.7890625 22.55859375 C-34.96044469 25.38786263 -46.36540276 20.63666852 -58 13 C-61.86824604 10.2096977 -65.62421263 7.37578737 -69 4 C-64.32233697 4 -63.81500877 4.65368257 -60.4375 7.625 C-48.37228118 17.64677233 -37.57094819 21.11351447 -22 20 C-14.91053843 18.81647005 -9.71494031 14.21691115 -5 9 C-3.0728153 6.10474112 -1.45439447 3.15727845 0 0 Z " fill="#283462" transform="translate(321,353)"/>
<path d="M0 0 C0.99 0.33 1.98 0.66 3 1 C2.98839844 2.23492187 2.97679687 3.46984375 2.96484375 4.7421875 C2.90478094 14.33888955 3.02951416 23.86258867 3.73217773 33.43701172 C4.10091801 38.79816398 4.10091801 38.79816398 3 41 C2.77532169 42.53668865 2.59203195 44.07968054 2.4375 45.625 C2.35371094 46.44226563 2.26992188 47.25953125 2.18359375 48.1015625 C2.12300781 48.72804687 2.06242188 49.35453125 2 50 C0.25109029 46.97039007 -0.24619963 44.80833325 -0.22705078 41.32324219 C-0.22689972 40.40258972 -0.22674866 39.48193726 -0.22659302 38.53338623 C-0.21627045 37.54783752 -0.20594788 36.56228882 -0.1953125 35.546875 C-0.1924826 34.53151672 -0.18965271 33.51615845 -0.18673706 32.47003174 C-0.17555001 29.22990084 -0.15044791 25.99004724 -0.125 22.75 C-0.1149683 20.55208733 -0.10584278 18.35417032 -0.09765625 16.15625 C-0.07561551 10.77073886 -0.04215251 5.38538924 0 0 Z " fill="#3CC8E3" transform="translate(0,151)"/>
<path d="M0 0 C0.66 0.66 1.32 1.32 2 2 C1.68546875 2.72960937 1.3709375 3.45921875 1.046875 4.2109375 C-7.42587538 24.8824068 -7.78006013 44.97946805 -8 67 C-8.33 67 -8.66 67 -9 67 C-10.14140732 59.68586187 -10.18361925 52.45533519 -10.1875 45.0625 C-10.19974609 43.83853516 -10.21199219 42.61457031 -10.22460938 41.35351562 C-10.23557851 34.55631016 -9.76897272 28.56470484 -8 22 C-7.66013333 20.33465333 -7.32297514 18.66870487 -7 17 C-6.34 17 -5.68 17 -5 17 C-5.03480469 16.39671875 -5.06960937 15.7934375 -5.10546875 15.171875 C-5.32961088 8.55434556 -5.32961088 8.55434556 -3.625 5.6875 C-2.820625 4.8521875 -2.820625 4.8521875 -2 4 C-1.30419733 2.68163705 -0.62775567 1.35208914 0 0 Z " fill="#43E8FA" transform="translate(69,120)"/>
<path d="M0 0 C0 0.66 0 1.32 0 2 C-1.08796875 1.79503906 -2.1759375 1.59007812 -3.296875 1.37890625 C-11.85194799 -0.20276135 -20.29454674 -1.58603439 -29 -2 C-29.89074219 -2.06445312 -30.78148437 -2.12890625 -31.69921875 -2.1953125 C-44.67336137 -2.73816366 -59.34894398 0.23579334 -71 6 C-71 5.01 -71 4.02 -71 3 C-47.08378141 -5.92448865 -24.64319383 -6.94401923 0 0 Z " fill="#1A627D" transform="translate(199,62)"/>
<path d="M0 0 C3.63765716 1.11927913 7.05554971 2.45975241 10.5 4.0625 C14.01021385 5.66937154 17.17217801 6.4258267 21 7 C21.33 7.66 21.66 8.32 22 9 C24.11846285 9.68729254 24.11846285 9.68729254 26.5625 10.125 C27.38878906 10.29257812 28.21507813 10.46015625 29.06640625 10.6328125 C29.70449219 10.75398438 30.34257813 10.87515625 31 11 C31 11.66 31 12.32 31 13 C31.65742187 12.80792969 32.31484375 12.61585938 32.9921875 12.41796875 C36.87995514 11.87772052 40.32438725 12.5475315 44.125 13.3125 C45.19814453 13.50875977 45.19814453 13.50875977 46.29296875 13.70898438 C49.75346646 14.37844515 52.03239878 15.02159919 55 17 C54.67 17.66 54.34 18.32 54 19 C39.01259598 17.41374191 24.690537 12.87601381 10.9375 6.8125 C9.80405151 6.31339111 9.80405151 6.31339111 8.64770508 5.80419922 C5.21565917 4.23063482 2.55683151 2.76855921 0 0 Z " fill="#61B7F7" transform="translate(84,311)"/>
<path d="M0 0 C5.97547883 1.36266698 9.24521703 4.54468403 13.4375 8.75 C14.41106445 9.66265625 14.41106445 9.66265625 15.40429688 10.59375 C17.15339147 12.32986086 18.67357799 13.92207221 20 16 C19.91015625 19.453125 19.91015625 19.453125 19 22 C18.34 22 17.68 22 17 22 C16.73445313 22.56589844 16.46890625 23.13179688 16.1953125 23.71484375 C15.84210938 24.44832031 15.48890625 25.18179687 15.125 25.9375 C14.60292969 27.03384766 14.60292969 27.03384766 14.0703125 28.15234375 C13 30 13 30 11 31 C11.50324656 28.3831179 12.27438702 26.46265875 13.5 24.0625 C14.86152622 21.2827173 15.55317708 19.03839588 16 16 C15.34 16 14.68 16 14 16 C12.65576661 14.34211215 11.32381517 12.67423683 10 11 C9.2575 10.443125 8.515 9.88625 7.75 9.3125 C7.1725 8.879375 6.595 8.44625 6 8 C6 7.34 6 6.68 6 6 C5.01 5.67 4.02 5.34 3 5 C1.3125 3.5625 1.3125 3.5625 0 2 C0 1.34 0 0.68 0 0 Z " fill="#7990E9" transform="translate(304,332)"/>
<path d="M0 0 C1.37687022 3.71754959 0.46151233 5.42741432 -1 9 C-1.26152695 10.97955785 -1.43404966 12.94479462 -1.55859375 14.9375 C-2.14562265 17.68043148 -3.53552409 19.61841418 -5 22 C-5.64696931 23.67155745 -6.25031825 25.3605525 -6.8125 27.0625 C-9.00491318 33.3241003 -11.92691929 39.13041585 -15 45 C-15.66 45 -16.32 45 -17 45 C-15.75084007 41.04432688 -14.28351625 37.24848526 -12.63891602 33.44116211 C-8.23248319 23.19901957 -5.02643107 12.71999577 -2 2 C-1.34 2 -0.68 2 0 2 C0 1.34 0 0.68 0 0 Z " fill="#7696F5" transform="translate(274,189)"/>
<path d="M0 0 C0.66 0.33 1.32 0.66 2 1 C0.94941406 1.56847656 -0.10117188 2.13695313 -1.18359375 2.72265625 C-8.93484972 6.96547816 -16.29128084 11.19264426 -23 17 C-23.82628906 17.69480469 -24.65257813 18.38960937 -25.50390625 19.10546875 C-30.21207334 22.86866457 -30.21207334 22.86866457 -33 28 C-33.99 28.33 -34.98 28.66 -36 29 C-37.66589237 30.85811713 -37.66589237 30.85811713 -39.1875 33.0625 C-39.71730469 33.79597656 -40.24710937 34.52945313 -40.79296875 35.28515625 C-41.19128906 35.85105469 -41.58960937 36.41695312 -42 37 C-42.495 35.515 -42.495 35.515 -43 34 C-30.48728665 19.91412153 -17.56886016 7.62422233 0 0 Z " fill="#18556E" transform="translate(126,66)"/>
<path d="M0 0 C0.99 1.32 1.98 2.64 3 4 C3.33 4.33 3.66 4.66 4 5 C5.55503617 13.19928165 4.29699882 20.86428014 3 29 C2.01 28.67 1.02 28.34 0 28 C0 18.76 0 9.52 0 0 Z " fill="#4572B4" transform="translate(273,153)"/>
<path d="M0 0 C0.99 0 1.98 0 3 0 C0.81361179 12.03124241 -1.75396834 23.51483239 -6 35 C-6.99 34.67 -7.98 34.34 -9 34 C-8.823479 33.41508789 -8.64695801 32.83017578 -8.46508789 32.22753906 C-7.66325535 29.56865075 -6.86286336 26.9093309 -6.0625 24.25 C-5.78470703 23.32960937 -5.50691406 22.40921875 -5.22070312 21.4609375 C-4.95322266 20.57148438 -4.68574219 19.68203125 -4.41015625 18.765625 C-4.04096069 17.54020996 -4.04096069 17.54020996 -3.66430664 16.29003906 C-3.05886415 14.20292014 -2.5110285 12.1119684 -2 10 C-1.34 10 -0.68 10 0 10 C-0.2784375 8.9171875 -0.2784375 8.9171875 -0.5625 7.8125 C-1.01995307 4.87173027 -0.73516357 2.85896942 0 0 Z " fill="#7D94F1" transform="translate(327,192)"/>
<path d="M0 0 C1.04486572 -0.00386719 2.08973145 -0.00773438 3.16625977 -0.01171875 C4.82032837 0.00181641 4.82032837 0.00181641 6.5078125 0.015625 C8.18798462 0.02142578 8.18798462 0.02142578 9.90209961 0.02734375 C17.96732119 0.1113504 25.70925497 0.67807859 33.6328125 2.265625 C29.80878848 4.86596133 27.04552338 3.98754089 22.6328125 3.265625 C19.58986828 3.15978346 16.55180668 3.2187801 13.5078125 3.265625 C5.82032527 3.33150278 -1.71229205 3.03523747 -9.3671875 2.265625 C-6.1370989 0.3573239 -3.73062644 0.00897864 0 0 Z " fill="#3AEEF4" transform="translate(157.3671875,-0.265625)"/>
<path d="M0 0 C0.88107422 -0.00773437 1.76214844 -0.01546875 2.66992188 -0.0234375 C7.53284381 -0.00886695 11.50017521 0.35592118 16.0625 2.25 C15.7325 2.91 15.4025 3.57 15.0625 4.25 C11.11153022 4.29939662 7.1606797 4.33571755 3.20947266 4.35986328 C1.2033864 4.37488107 -0.80261324 4.40028981 -2.80859375 4.42578125 C-4.06542969 4.43222656 -5.32226562 4.43867188 -6.6171875 4.4453125 C-7.77976074 4.45578613 -8.94233398 4.46625977 -10.14013672 4.47705078 C-12.9375 4.25 -12.9375 4.25 -14.9375 2.25 C-10.07285921 -0.29862677 -5.34828579 -0.04674394 0 0 Z " fill="#6495F6" transform="translate(201.9375,325.75)"/>
<path d="M0 0 C0.845625 -0.020625 1.69125 -0.04125 2.5625 -0.0625 C8.77494269 -0.10169522 8.77494269 -0.10169522 11.9609375 1.765625 C12.42757812 2.25546875 12.89421875 2.7453125 13.375 3.25 C10.375 3.25 7.375 3.25 4.375 3.25 C2.70553045 3.31821567 1.03628693 3.3920098 -0.6328125 3.46875 C-2.11201172 3.53642578 -2.11201172 3.53642578 -3.62109375 3.60546875 C-4.65363281 3.65316406 -5.68617188 3.70085937 -6.75 3.75 C-7.79027344 3.79769531 -8.83054688 3.84539062 -9.90234375 3.89453125 C-12.47658139 4.01261555 -15.05079888 4.13112262 -17.625 4.25 C-15.625 1.25 -15.625 1.25 -13.1015625 0.578125 C-8.72474527 0.16503214 -4.39451065 0.02704314 0 0 Z " fill="#6EB2FA" transform="translate(209.625,269.75)"/>
<path d="M0 0 C0.66 0.33 1.32 0.66 2 1 C1.35321289 1.51046875 1.35321289 1.51046875 0.69335938 2.03125 C-10.61714938 11.01277332 -20.98994353 20.59247641 -31 31 C-31 28 -31 28 -28.875 25.75 C-27.92625 24.8425 -26.9775 23.935 -26 23 C-25.05203469 21.88380422 -24.1149656 20.75828673 -23.1875 19.625 C-16.5693004 11.85070984 -8.17837444 6.01110521 0 0 Z " fill="#114F60" transform="translate(70,30)"/>
<path d="M0 0 C0.33 0 0.66 0 1 0 C1.82953189 3.61921386 2.12849956 6.96572807 2.1328125 10.67578125 C2.13410156 11.75150391 2.13539063 12.82722656 2.13671875 13.93554688 C2.13285156 15.04994141 2.12898438 16.16433594 2.125 17.3125 C2.12886719 18.41529297 2.13273437 19.51808594 2.13671875 20.65429688 C2.12970067 26.53193745 1.89183752 32.18889998 1 38 C0.67 38 0.34 38 0 38 C-1.63438373 25.35238434 -0.65411358 12.68921007 0 0 Z " fill="#7AB2F7" transform="translate(330,148)"/>
<path d="M0 0 C0.33 0 0.66 0 1 0 C0.23232323 13.43434343 0.23232323 13.43434343 -2 20 C-3.20412268 23.74615946 -4 26.67780097 -4 30.625 C-4 33.99890064 -4.54402751 35.99705675 -6 39 C-6.33 39 -6.66 39 -7 39 C-7.2844512 31.76895108 -6.2548242 25.40705046 -4.625 18.375 C-4.40328125 17.37726563 -4.1815625 16.37953125 -3.953125 15.3515625 C-2.79058955 10.18169896 -1.52133705 5.07586286 0 0 Z " fill="#3FEDFA" transform="translate(8,114)"/>
<path d="M0 0 C4.09890592 1.61028447 6.76208956 4.57811821 9.75 7.6875 C13.79673816 11.82305545 17.90064123 15.77666831 22.30859375 19.53125 C24.66285302 21.57559523 26.83014011 23.76233199 29 26 C28.67 26.66 28.34 27.32 28 28 C20.89128431 21.645239 14.00135225 15.10823592 7.25 8.375 C6.53457031 7.66408203 5.81914062 6.95316406 5.08203125 6.22070312 C4.42074219 5.55748047 3.75945312 4.89425781 3.078125 4.2109375 C2.48418945 3.61587402 1.89025391 3.02081055 1.27832031 2.40771484 C0 1 0 1 0 0 Z " fill="#252F65" transform="translate(279,306)"/>
<path d="M0 0 C-3.25632029 3.25632029 -7.67384652 3.76604503 -12.03125 5 C-15.07755514 5.78129524 -15.07755514 5.78129524 -17 8 C-18.75147432 8.56408191 -20.52694614 9.05542367 -22.3125 9.5 C-26.01471851 10.42934271 -29.48188329 11.5132913 -33 13 C-33 12.34 -33 11.68 -33 11 C-8.49689943 -0.23726072 -8.49689943 -0.23726072 0 0 Z " fill="#37F8FC" transform="translate(129,5)"/>
<path d="M0 0 C4.37575353 0.44029885 6.73752108 3.35542093 9.640625 6.34765625 C10.16767029 6.87894638 10.69471558 7.41023651 11.23773193 7.95762634 C12.91567187 9.65232825 14.58286728 11.35717217 16.25 13.0625 C17.38732745 14.21487745 18.52534066 15.36657852 19.6640625 16.51757812 C22.45071992 19.33727184 25.22778792 22.16610588 28 25 C27.34 25.33 26.68 25.66 26 26 C25.34 25.319375 24.68 24.63875 24 23.9375 C21.76285091 21.68763983 19.4144047 19.62023128 17 17.5625 C13.60566425 14.63045251 10.87345356 11.44814427 8 8 C5.89794368 6.08724706 3.75314448 4.24246664 1.57421875 2.41796875 C1.05472656 1.95003906 0.53523438 1.48210937 0 1 C0 0.67 0 0.34 0 0 Z " fill="#7AA3FD" transform="translate(272,302)"/>
<path d="M0 0 C0.99 0.33 1.98 0.66 3 1 C-6.92947149 22.7238691 -6.92947149 22.7238691 -11 28 C-11.66 28 -12.32 28 -13 28 C-13 27.01 -13 26.02 -13 25 C-12.34 25 -11.68 25 -11 25 C-11 24.01 -11 23.02 -11 22 C-10.34 22 -9.68 22 -9 22 C-8.7525 21.195625 -8.505 20.39125 -8.25 19.5625 C-7.00926884 16.0264162 -5.56306354 12.6686142 -4.01953125 9.2578125 C-2.63450436 6.19058821 -1.31772132 3.09664509 0 0 Z " fill="#8A95F5" transform="translate(317,228)"/>
<path d="M0 0 C7.42857143 1 7.42857143 1 11 2 C11 2.66 11 3.32 11 4 C12.98 4.66 14.96 5.32 17 6 C17 5.34 17 4.68 17 4 C17.66 4 18.32 4 19 4 C18.375 5.9375 18.375 5.9375 17 8 C14.0625 8.9375 14.0625 8.9375 11 9 C9.96528601 8.0359632 8.96940248 7.02968871 8 6 C6.62604325 5.09103435 5.22900208 4.21612874 3.8125 3.375 C2.52556107 2.60979307 1.24942675 1.82503714 0 1 C0 0.67 0 0.34 0 0 Z " fill="#606AB8" transform="translate(286,252)"/>
<path d="M0 0 C1.60294922 0.01353516 1.60294922 0.01353516 3.23828125 0.02734375 C4.04652344 0.03894531 4.85476562 0.05054688 5.6875 0.0625 C4.3675 0.3925 3.0475 0.7225 1.6875 1.0625 C1.6875 1.7225 1.6875 2.3825 1.6875 3.0625 C-3.9681294 4.41094868 -9.5315275 5.43184845 -15.3125 6.0625 C-15.6425 5.4025 -15.9725 4.7425 -16.3125 4.0625 C-14.6625 3.4025 -13.0125 2.7425 -11.3125 2.0625 C-11.3125 1.7325 -11.3125 1.4025 -11.3125 1.0625 C-7.47525828 0.15836327 -3.93747726 -0.04326898 0 0 Z " fill="#2999A3" transform="translate(146.3125,-0.0625)"/>
<path d="M0 0 C4.09332551 1.81925578 7.61674275 4.41536578 11.25 7 C11.8996875 7.45117188 12.549375 7.90234375 13.21875 8.3671875 C14.85075709 9.52604968 16.4304825 10.75781503 18 12 C18 12.66 18 13.32 18 14 C18.99 14.33 19.98 14.66 21 15 C22.82421875 16.84765625 22.82421875 16.84765625 24.6875 19.0625 C25.62142578 20.16271484 25.62142578 20.16271484 26.57421875 21.28515625 C27.27998047 22.13400391 27.27998047 22.13400391 28 23 C27.67 23.66 27.34 24.32 27 25 C25.71029297 23.64068359 25.71029297 23.64068359 24.39453125 22.25390625 C17.50753449 15.11779283 10.73418708 8.9935412 2.3515625 3.671875 C1.57554687 3.12015625 0.79953125 2.5684375 0 2 C0 1.34 0 0.68 0 0 Z " fill="#48E0F7" transform="translate(222,72)"/>
<path d="M0 0 C0.66 0 1.32 0 2 0 C0.61022576 3.27589642 -0.89879192 5.01422192 -3.75 7.125 C-4.40484375 7.62257813 -5.0596875 8.12015625 -5.734375 8.6328125 C-10.76890091 11.67088848 -15.37183057 12.2749332 -21.1875 12.25 C-23.00314453 12.25773437 -23.00314453 12.25773437 -24.85546875 12.265625 C-28 12 -28 12 -31 10 C-30.10539062 10.03480469 -29.21078125 10.06960938 -28.2890625 10.10546875 C-19.27202286 10.30734277 -10.76285963 10.29086065 -3.4375 4.4375 C-0.99341192 2.25034698 -0.99341192 2.25034698 0 0 Z " fill="#8699FA" transform="translate(313,362)"/>
<path d="M0 0 C0.66 0.66 1.32 1.32 2 2 C-1.0301707 9.50450787 -4.26606169 16.81812717 -8 24 C-8.66 24 -9.32 24 -10 24 C-8.39693205 18.94912762 -6.46045789 14.08013836 -4.4375 9.1875 C-4.12103516 8.41212891 -3.80457031 7.63675781 -3.47851562 6.83789062 C-1.12395368 1.12395368 -1.12395368 1.12395368 0 0 Z " fill="#8A9EF9" transform="translate(267,210)"/>
<path d="M0 0 C3.86933162 0.57323431 6.15222057 2.38953552 9 5 C9 5.66 9 6.32 9 7 C9.59296875 7.25523438 10.1859375 7.51046875 10.796875 7.7734375 C13.21224538 9.11816498 14.51211706 10.49214367 16.25 12.625 C16.77078125 13.25664063 17.2915625 13.88828125 17.828125 14.5390625 C18.40820312 15.26222656 18.40820312 15.26222656 19 16 C16 16 16 16 13.22265625 13.515625 C12.16158004 12.43457872 11.10847611 11.34566316 10.0625 10.25 C9.27456055 9.44175781 9.27456055 9.44175781 8.47070312 8.6171875 C7.44644271 7.5660066 6.42501888 6.51205273 5.40673828 5.45507812 C3.62689604 3.61407504 1.81720009 1.80406371 0 0 Z " fill="#1F6585" transform="translate(271,39)"/>
<path d="M0 0 C5.42261403 1.47229674 8.54266269 5.20374801 12.3125 9.125 C13.28026367 10.11306641 13.28026367 10.11306641 14.26757812 11.12109375 C15.85207478 12.74080144 17.42912099 14.36710005 19 16 C15.47967572 16 14.5614657 15.29648649 12 13 C12 12.34 12 11.68 12 11 C11.42765625 10.75378906 10.8553125 10.50757813 10.265625 10.25390625 C7.63481257 8.79788765 5.85191095 7.08222766 3.75 4.9375 C3.04359375 4.22464844 2.3371875 3.51179688 1.609375 2.77734375 C0 1 0 1 0 0 Z " fill="#31457E" transform="translate(261,289)"/>
<path d="M0 0 C2.60557491 0.28184585 5.20900398 0.57502711 7.8125 0.875 C8.55048828 0.95363281 9.28847656 1.03226562 10.04882812 1.11328125 C13.71506181 1.54460286 15.87951745 1.9196783 19 4 C18.67 4.66 18.34 5.32 18 6 C15.87363187 5.71848084 13.74891472 5.42446737 11.625 5.125 C10.44164062 4.96257812 9.25828125 4.80015625 8.0390625 4.6328125 C5 4 5 4 3 2 C2.01 1.34 1.02 0.68 0 0 Z " fill="#5A9DF6" transform="translate(120,324)"/>
<path d="M0 0 C9.59086247 1.08442938 17.06093328 7.67773921 24 14 C20.30764154 14 19.41428265 13.06071198 16.5 10.875 C11.24590821 7.07004562 5.75103171 3.98485106 0 1 C0 0.67 0 0.34 0 0 Z " fill="#212E66" transform="translate(238,274)"/>
<path d="M0 0 C6.9113364 0.47122748 12.72204161 3.20636006 19 6 C18.67 6.99 18.34 7.98 18 9 C17.20335937 8.59007812 16.40671875 8.18015625 15.5859375 7.7578125 C14.52632812 7.21898437 13.46671875 6.68015625 12.375 6.125 C11.33085937 5.59132813 10.28671875 5.05765625 9.2109375 4.5078125 C6.18198375 3.08545709 3.19356666 1.9877999 0 1 C0 0.67 0 0.34 0 0 Z " fill="#6FA8F6" transform="translate(227,272)"/>
<path d="M0 0 C0.99 0 1.98 0 3 0 C2.38605929 3.27300996 1.75695364 6.54292425 1.125 9.8125 C0.95097656 10.74126953 0.77695312 11.67003906 0.59765625 12.62695312 C0.42363281 13.51962891 0.24960937 14.41230469 0.0703125 15.33203125 C-0.08679199 16.15421143 -0.24389648 16.9763916 -0.40576172 17.82348633 C-1 20 -1 20 -3 23 C-2.67 18.71 -2.34 14.42 -2 10 C-1.34 10 -0.68 10 0 10 C-0.2784375 8.9171875 -0.2784375 8.9171875 -0.5625 7.8125 C-1.01995307 4.87173027 -0.73516357 2.85896942 0 0 Z " fill="#85A2F7" transform="translate(327,192)"/>
<path d="M0 0 C0.33 0.66 0.66 1.32 1 2 C-0.20206629 4.22901675 -1.44218028 6.31593901 -2.8125 8.4375 C-3.36647461 9.31631836 -3.36647461 9.31631836 -3.93164062 10.21289062 C-5.58743088 12.83183357 -7.28127816 15.42191723 -9 18 C-9.82707306 15.63011757 -10.12634 14.38269269 -9.328125 11.96484375 C-8.79445313 10.96130859 -8.79445313 10.96130859 -8.25 9.9375 C-7.73179688 8.93009766 -7.73179688 8.93009766 -7.203125 7.90234375 C-5.96972754 5.95213413 -4.76192345 4.48836165 -3 3 C-2.34 3 -1.68 3 -1 3 C-0.67 2.01 -0.34 1.02 0 0 Z " fill="#3BE8F6" transform="translate(80,102)"/>
<path d="M0 0 C0.82693359 0.19529297 1.65386719 0.39058594 2.50585938 0.59179688 C4.52741171 1.07089309 6.54536036 1.56515234 8.5625 2.0625 C8.5625 2.7225 8.5625 3.3825 8.5625 4.0625 C7.428125 3.85753906 6.29375 3.65257812 5.125 3.44140625 C3.60418618 3.1691618 2.08335174 2.89703255 0.5625 2.625 C-0.18128906 2.49029297 -0.92507812 2.35558594 -1.69140625 2.21679688 C-6.59506564 1.34266629 -11.49014526 0.64156538 -16.4375 0.0625 C-16.4375 -0.2675 -16.4375 -0.5975 -16.4375 -0.9375 C-10.46005022 -2.21322418 -5.88501024 -1.46532487 0 0 Z " fill="#176080" transform="translate(190.4375,59.9375)"/>
<path d="M0 0 C0 0.99 0 1.98 0 3 C-3.52653223 4.80847806 -7.08611956 6.53392499 -10.6875 8.1875 C-11.43386719 8.53167969 -12.18023437 8.87585937 -12.94921875 9.23046875 C-15 10 -15 10 -18 10 C-16.33784732 8.66104368 -14.67036393 7.32869858 -13 6 C-12.4225 5.484375 -11.845 4.96875 -11.25 4.4375 C-7.77758958 2.21901556 -3.92628164 1.18291819 0 0 Z " fill="#24A5AE" transform="translate(90,19)"/>
<path d="M0 0 C4.87153789 0.41756039 6.75362285 2.49732992 10 6 C10.99 6.66 11.98 7.32 13 8 C13 8.66 13 9.32 13 10 C13.66 10 14.32 10 15 10 C15.33 11.32 15.66 12.64 16 14 C14.576875 12.700625 14.576875 12.700625 13.125 11.375 C8.78218621 7.62965751 3.97415349 4.82235671 -1 2 C-0.67 1.34 -0.34 0.68 0 0 Z " fill="#6993F3" transform="translate(229,333)"/>
<path d="M0 0 C0.8971875 0.309375 0.8971875 0.309375 1.8125 0.625 C-0.1875 3.625 -0.1875 3.625 -2.875 4.5 C-7.01391545 5.9056694 -9.7156769 7.98641444 -13.1875 10.625 C-13.8475 10.295 -14.5075 9.965 -15.1875 9.625 C-13.5845551 8.33181744 -11.98009858 7.04050844 -10.375 5.75 C-9.48167969 5.03070312 -8.58835937 4.31140625 -7.66796875 3.5703125 C-2.55661488 -0.43827684 -2.55661488 -0.43827684 0 0 Z " fill="#33F5FA" transform="translate(80.1875,26.375)"/>
<path d="M0 0 C4.25108502 0.86596176 7.74780886 2.84336318 11.5625 4.84375 C13.73033039 5.8720798 15.65891431 6.52311217 18 7 C17.67 7.66 17.34 8.32 17 9 C10.75029999 7.22057153 5.21510863 4.95040926 0 1 C0 0.67 0 0.34 0 0 Z " fill="#778FF2" transform="translate(265,364)"/>
<path d="M0 0 C3.99432781 1.62061033 6.79558321 4.39339173 9.8125 7.375 C10.5849707 8.09816406 10.5849707 8.09816406 11.37304688 8.8359375 C12.83203125 10.2734375 12.83203125 10.2734375 15 13 C14.82421875 15.3515625 14.82421875 15.3515625 14 17 C13.34 16.01 12.68 15.02 12 14 C10.91230503 12.71504045 9.80642417 11.44535933 8.6875 10.1875 C5.72927773 6.83938652 2.84310436 3.4461871 0 0 Z " fill="#2B3167" transform="translate(309,335)"/>
<path d="M0 0 C2.62506802 -0.02690844 5.24986173 -0.04679404 7.875 -0.0625 C8.62136719 -0.07087891 9.36773437 -0.07925781 10.13671875 -0.08789062 C15.7734375 -0.11328125 15.7734375 -0.11328125 18 1 C18 1.66 18 2.32 18 3 C11.20292787 4.38458877 6.47913427 3.35001386 0 1 C0 0.67 0 0.34 0 0 Z " fill="#5B96E1" transform="translate(165,273)"/>
<path d="M0 0 C2.06298828 -0.34057617 2.06298828 -0.34057617 4.5703125 -0.29296875 C5.46621094 -0.28330078 6.36210937 -0.27363281 7.28515625 -0.26367188 C8.69087891 -0.2259668 8.69087891 -0.2259668 10.125 -0.1875 C11.06988281 -0.17396484 12.01476562 -0.16042969 12.98828125 -0.14648438 C15.32608779 -0.11106306 17.66276237 -0.06167271 20 0 C20 0.66 20 1.32 20 2 C9.11 2.495 9.11 2.495 -2 3 C-1.34 2.01 -0.68 1.02 0 0 Z " fill="#5B96FD" transform="translate(194,271)"/>
<path d="M0 0 C0.66 0.66 1.32 1.32 2 2 C1.40776866 3.62938774 0.80076372 5.25341128 0.1875 6.875 C-0.14894531 7.77992187 -0.48539062 8.68484375 -0.83203125 9.6171875 C-2 12 -2 12 -5 14 C-5.30993348 9.45430898 -4.97680153 7.434771 -2 4 C-1.30419733 2.68163705 -0.62775567 1.35208914 0 0 Z " fill="#39E0F5" transform="translate(69,120)"/>
<path d="M0 0 C5.67799642 1.48121646 5.67799642 1.48121646 7.125 3.8125 C7.41375 4.534375 7.7025 5.25625 8 6 C9.3050581 7.68889872 10.63360658 9.3603279 12 11 C9.5625 10.1875 9.5625 10.1875 7 9 C6.67 8.01 6.34 7.02 6 6 C5.01 5.67 4.02 5.34 3 5 C1.3125 3.5625 1.3125 3.5625 0 2 C0 1.34 0 0.68 0 0 Z " fill="#6D87E5" transform="translate(304,332)"/>
<path d="M0 0 C0.66 0.33 1.32 0.66 2 1 C0.07254909 2.70034041 -1.86541739 4.38490979 -3.8125 6.0625 C-4.63331055 6.79049805 -4.63331055 6.79049805 -5.47070312 7.53320312 C-6.91610309 8.76836309 -8.45427799 9.89295679 -10 11 C-10.99 10.67 -11.98 10.34 -13 10 C-8.71 6.7 -4.42 3.4 0 0 Z " fill="#116372" transform="translate(70,30)"/>
<path d="M0 0 C0 0.33 0 0.66 0 1 C-10.395 1.495 -10.395 1.495 -21 2 C-21 1.67 -21 1.34 -21 1 C-13.80298461 -1.39900513 -7.47743661 -0.84349132 0 0 Z " fill="#3EF6FD" transform="translate(173,56)"/>
<path d="M0 0 C4 2 8 4 12 6 C11.01 6.66 10.02 7.32 9 8 C5.8901291 6.96337637 5.18055324 6.26777536 3 4 C1.68036291 2.98199424 0.34990354 1.97751635 -1 1 C-0.67 0.67 -0.34 0.34 0 0 Z " fill="#858FE8" transform="translate(278,246)"/>
<path d="M0 0 C3.70503641 0.60334309 5.85968148 2.22474237 8.75 4.5625 C9.94882812 5.52349609 9.94882812 5.52349609 11.171875 6.50390625 C12.07679687 7.24447266 12.07679687 7.24447266 13 8 C12.34 8.66 11.68 9.32 11 10 C7.28727866 7.05166247 3.59369681 4.09225074 0 1 C0 0.67 0 0.34 0 0 Z " fill="#1E5077" transform="translate(48,288)"/>
<path d="M0 0 C1.35179673 3.64985116 0.55313497 5.52828653 -1 9 C-1 9.66 -1 10.32 -1 11 C-1.66 11 -2.32 11 -3 11 C-3.33 11.66 -3.66 12.32 -4 13 C-3 5.57142857 -3 5.57142857 -2 2 C-1.34 2 -0.68 2 0 2 C0 1.34 0 0.68 0 0 Z " fill="#7BA3F7" transform="translate(274,189)"/>
<path d="M0 0 C2.31 0.66 4.62 1.32 7 2 C7 2.33 7 2.66 7 3 C2.32798795 4.20568053 -2.21496292 4.09382426 -7 4 C-7 3.67 -7 3.34 -7 3 C-5.5459375 2.5359375 -5.5459375 2.5359375 -4.0625 2.0625 C-1.15934208 1.30476658 -1.15934208 1.30476658 0 0 Z " fill="#36DAF6" transform="translate(175,54)"/>
<path d="M0 0 C-3.42025316 3.42025316 -7.71982025 3.95344801 -12.4375 4.125 C-13.283125 4.08375 -14.12875 4.0425 -15 4 C-10.13371581 1.37969313 -5.5814298 -0.3283194 0 0 Z " fill="#3AEEF2" transform="translate(129,5)"/>
<path d="M0 0 C3.7952131 1.49097658 5.61042731 3.75700849 8 7 C5 7 5 7 2.3125 4.625 C0 2 0 2 0 0 Z " fill="#364786" transform="translate(246,349)"/>
<path d="M0 0 C0.96697501 3.86790003 0.979595 5.08162002 0.0625 8.75 C-0.22947266 9.94882813 -0.22947266 9.94882813 -0.52734375 11.171875 C-0.68332031 11.77515625 -0.83929688 12.3784375 -1 13 C-1.99 12.67 -2.98 12.34 -4 12 C-2.68 8.04 -1.36 4.08 0 0 Z " fill="#758BF3" transform="translate(322,214)"/>
<path d="M0 0 C3.19199167 2.41556126 5.74716687 4.68003538 8 8 C7.67 8.66 7.34 9.32 7 10 C4.13211375 8.94844171 3.17723991 8.36380824 1.8125 5.5625 C1.544375 4.716875 1.27625 3.87125 1 3 C0.67 2.01 0.34 1.02 0 0 Z " fill="#4AE3F9" transform="translate(293,62)"/>
<path d="M0 0 C0 0.66 0 1.32 0 2 C-4.29 1.67 -8.58 1.34 -13 1 C-13 0.67 -13 0.34 -13 0 C-8.34462607 -0.83796731 -4.62921525 -1.0161692 0 0 Z " fill="#28A1B9" transform="translate(187,59)"/>
<path d="M0 0 C4.3890815 0.51035831 7.33708062 1.52214277 11 4 C8 5 8 5 5.95703125 4.22265625 C5.24933594 3.83980469 4.54164063 3.45695313 3.8125 3.0625 C3.09707031 2.68222656 2.38164062 2.30195313 1.64453125 1.91015625 C1.10183594 1.60980469 0.55914062 1.30945313 0 1 C0 0.67 0 0.34 0 0 Z " fill="#8E99F9" transform="translate(267,242)"/>
<path d="M0 0 C3.78611227 0.54087318 5.55400767 2.11722332 8 5 C8 5.66 8 6.32 8 7 C6 7 6 7 3.4375 4.625 C1 2 1 2 0 0 Z " fill="#6E9DF5" transform="translate(272,302)"/>
<path d="M0 0 C-3.22791555 2.1519437 -4.28400809 2.20086443 -8 2 C-8.33 1.34 -8.66 0.68 -9 0 C-5.67465243 -1.10844919 -3.37817425 -0.84454356 0 0 Z " fill="#31F6FD" transform="translate(139,4)"/>
<path d="" fill="#0000FF" transform="translate(0,0)"/>
<path d="" fill="#0000FF" transform="translate(0,0)"/>
<path d="" fill="#0000FF" transform="translate(0,0)"/>
<path d="" fill="#000000" transform="translate(0,0)"/>
<path d="" fill="#00FFFF" transform="translate(0,0)"/>
<path d="" fill="#00FFFF" transform="translate(0,0)"/>
<path d="" fill="#0000FF" transform="translate(0,0)"/>
<path d="" fill="#00FFFF" transform="translate(0,0)"/>
<path d="" fill="#0000FF" transform="translate(0,0)"/>
<path d="" fill="#00FFFF" transform="translate(0,0)"/>
<path d="" fill="#0000FF" transform="translate(0,0)"/>
<path d="" fill="#0000FF" transform="translate(0,0)"/>
<path d="" fill="#00FFFF" transform="translate(0,0)"/>
<path d="" fill="#00FFFF" transform="translate(0,0)"/>
</svg>
