<svg version="1.1" id="Layer_1" xmlns="http://www.w3.org/2000/svg" xmlns:xlink="http://www.w3.org/1999/xlink" x="0px" y="0px"
	 width="100%" viewBox="0 0 912 816" enable-background="new 0 0 912 816" xml:space="preserve">
<path fill="#000000" opacity="1.000000" stroke="none" 
	d="
M698.068176,499.512451 
	C685.533020,504.805786 673.160828,509.575684 661.393066,515.703491 
	C641.949768,525.828186 623.675842,537.863953 607.218079,552.240234 
	C595.297058,562.653625 584.501831,574.350342 573.976257,586.318909 
	C563.400452,598.344788 555.087036,611.887512 546.044495,624.853149 
	C538.367493,635.860840 531.866028,648.137878 527.702515,661.137573 
	C523.702332,673.627136 519.144470,685.688599 511.533020,696.515015 
	C497.052307,717.111938 477.800293,730.919800 453.476105,737.253296 
	C425.357147,744.574829 398.700775,739.694763 373.984467,725.224243 
	C357.408325,715.519531 346.675598,700.286743 338.083832,683.289368 
	C330.768982,668.818115 326.175110,653.252991 317.887329,639.052246 
	C310.098724,625.706848 300.921509,613.453735 292.596283,600.565247 
	C283.631287,586.686462 271.814423,575.231506 260.330994,563.592773 
	C246.954102,550.034912 231.684662,538.821655 215.454056,528.693604 
	C208.167648,524.146851 200.967300,519.449951 193.388779,515.406860 
	C174.480499,505.319336 154.882004,496.944214 133.882401,492.189545 
	C124.306252,490.021332 120.968422,484.322083 119.549583,471.978088 
	C115.299004,434.997711 116.811218,397.901215 116.717575,360.844788 
	C116.525970,285.023956 116.688019,209.202271 116.599777,133.381042 
	C116.592987,127.547302 117.881081,122.848137 122.728546,119.009132 
	C125.594353,116.739517 128.516907,115.856216 131.445251,117.051468 
	C137.855606,119.667938 144.693314,119.911774 151.291031,121.410828 
	C162.400330,123.934967 173.528168,126.316025 184.491287,129.492432 
	C201.702179,134.479004 218.147415,141.330109 234.536133,148.484482 
	C249.144989,154.861847 262.959106,162.848969 276.006714,171.611969 
	C292.290497,182.548431 307.637848,195.034164 320.828674,209.970566 
	C327.568298,217.602097 335.167328,224.481918 341.674683,232.414597 
	C351.985138,244.983398 361.392426,258.188751 369.494080,272.229065 
	C377.772125,286.575043 385.320404,301.421356 390.862671,317.029236 
	C397.438812,335.548706 402.589752,354.489868 406.637054,373.822418 
	C412.427399,401.481018 411.177582,429.325470 411.209351,457.169189 
	C411.216461,463.377441 409.799316,469.640533 408.577423,475.786835 
	C405.126801,493.144104 401.547943,510.484192 396.238586,527.395996 
	C394.905396,531.642517 393.053009,535.723755 391.606323,539.938293 
	C391.139160,541.299133 390.776917,542.978394 392.270966,544.078003 
	C393.519073,544.996582 394.774719,544.291992 396.048553,543.841187 
	C414.202454,537.416565 432.637329,536.948608 451.343018,541.092896 
	C455.263245,541.961426 458.956024,543.314087 462.618317,544.844910 
	C464.035767,545.437317 465.421509,546.134766 466.721741,544.712769 
	C467.886536,543.438843 466.971527,542.215881 466.521851,541.004883 
	C460.818817,525.646912 456.127197,509.982483 452.454834,494.020630 
	C449.296936,480.294952 447.289093,466.437378 446.456909,452.326538 
	C445.967072,444.020691 445.248474,435.705841 445.758148,427.444611 
	C446.949768,408.130157 446.904419,388.767181 451.229462,369.634644 
	C458.473328,337.590302 468.474884,306.695953 484.809937,278.058014 
	C495.483337,259.345825 507.504211,241.725891 521.826782,225.417694 
	C535.471863,209.881012 550.589722,196.096115 566.262695,182.900665 
	C577.132507,173.749115 589.097290,165.894684 601.650269,158.962296 
	C621.163330,148.186203 641.735657,139.832184 662.624573,132.426956 
	C675.333435,127.921593 688.678833,124.833557 701.896362,122.105988 
	C710.107666,120.411522 718.408813,119.311905 726.543091,116.914497 
	C733.622803,114.827866 741.020691,120.856194 741.234009,128.602661 
	C741.553833,140.213577 740.452209,151.794266 739.560913,163.371017 
	C739.267456,167.182358 739.361511,171.026932 739.356140,174.856430 
	C739.336121,189.187454 739.881409,203.542404 739.241150,217.844788 
	C737.765686,250.801270 739.298279,283.785095 738.144653,316.712097 
	C737.084717,346.965332 736.992065,377.226532 736.041199,407.460510 
	C735.418152,427.269196 735.743652,447.052826 735.447205,466.843933 
	C735.369690,472.024200 734.652954,477.100769 734.207153,482.213043 
	C733.608032,489.083313 727.779419,490.657379 722.539368,491.913513 
	C714.313171,493.885498 706.484680,497.002960 698.068176,499.512451 
M172.267929,344.733093 
	C166.041138,350.128693 161.307144,356.761993 157.143463,363.751068 
	C147.005569,380.768250 140.629730,398.927002 139.128235,418.940399 
	C137.939835,434.780792 138.384903,450.337341 141.020233,465.988037 
	C141.793991,470.583313 144.127670,472.290497 147.740433,473.331726 
	C166.718384,478.801239 184.930634,486.151611 202.810669,494.539398 
	C220.301514,502.744659 236.396805,513.270203 251.531586,524.913391 
	C266.400177,536.351807 280.378326,549.048096 293.033691,563.154724 
	C304.362610,575.782715 314.838440,588.843567 323.092163,603.713501 
	C324.750732,606.701599 325.585693,610.910767 330.019897,612.416931 
	C331.382172,609.789795 332.980530,607.796631 334.011902,605.262634 
	C336.446411,599.281494 338.761658,593.111389 342.207275,587.707703 
	C354.003479,569.207947 363.874268,549.810913 371.449280,529.221985 
	C376.718231,514.901001 380.172546,500.151031 383.496002,485.262024 
	C387.392975,467.803680 388.449005,450.129578 389.368103,432.496948 
	C390.080841,418.822998 387.018524,405.281097 382.905945,392.044891 
	C379.090881,379.766418 374.263153,367.950165 366.333740,357.935272 
	C358.690552,348.281799 351.586243,338.203064 340.703552,331.136963 
	C331.945251,325.450226 323.669373,318.707916 314.052124,314.812653 
	C295.027496,307.107117 275.270691,303.003479 254.384308,305.168579 
	C239.268326,306.735504 224.898315,309.880280 210.955139,316.222076 
	C196.140274,322.960388 183.735947,332.487274 172.267929,344.733093 
M540.986389,315.510590 
	C528.709045,322.709839 516.891846,330.443756 505.894958,339.645996 
	C495.799011,348.094299 489.495667,359.047760 483.209778,369.931702 
	C475.388519,383.473999 472.144440,398.560822 469.819519,414.162323 
	C467.001831,433.070343 468.625671,451.615387 470.881165,470.145874 
	C472.627716,484.494751 475.852600,498.673767 480.137939,512.624817 
	C486.145477,532.182739 494.046875,550.846558 503.559448,568.899597 
	C509.271545,579.740112 516.571777,589.647217 521.966736,600.688721 
	C523.712097,604.260803 523.820129,608.642517 526.586609,611.480896 
	C528.634338,611.327209 528.763306,609.955322 529.368286,609.023193 
	C535.496460,599.580994 540.712585,589.438721 548.347168,581.120605 
	C556.600281,572.128479 564.463318,562.799072 573.254822,554.236816 
	C582.383911,545.345764 591.572083,536.474976 601.419128,528.508728 
	C617.351440,515.619385 634.640137,504.537170 652.936646,495.190399 
	C670.517151,486.209351 688.416626,477.988464 707.777161,473.430756 
	C711.761475,472.492828 713.806519,469.867737 713.704834,465.430542 
	C713.502625,456.606934 713.629822,447.775269 713.656738,438.947083 
	C713.683044,430.287140 713.105652,421.560089 713.994934,412.987183 
	C714.815063,405.081818 714.312012,397.703705 711.958984,390.101135 
	C703.054810,361.332794 685.152771,339.497375 660.210815,323.461823 
	C642.568909,312.119598 622.923950,305.500885 601.865967,304.466980 
	C581.076965,303.446228 560.997803,307.433594 540.986389,315.510590 
M141.069305,347.214569 
	C144.588226,343.076752 148.237656,339.041809 151.598328,334.779205 
	C158.176208,326.435883 165.397186,318.522186 173.889069,312.354828 
	C182.276337,306.263458 191.062698,300.529968 200.601166,296.047821 
	C219.800598,287.026001 240.049927,282.610016 261.061859,281.777039 
	C274.315918,281.251617 287.459137,283.361603 300.372070,286.270264 
	C313.538544,289.236023 325.736176,294.743073 337.345398,301.630859 
	C345.886444,306.698242 354.689880,311.328278 361.285675,319.078796 
	C362.354828,320.335144 363.766571,322.495483 365.798798,320.946960 
	C367.493744,319.655426 366.696747,317.619751 365.911957,315.902740 
	C360.485992,304.031189 355.058105,292.197327 348.173401,281.027100 
	C337.023285,262.936340 324.824554,245.653427 309.808289,230.600555 
	C297.042419,217.803513 283.673828,205.649689 268.971924,194.975677 
	C256.386169,185.838089 243.526367,177.222794 229.644913,170.212326 
	C213.794357,162.207397 197.333572,155.482574 180.194901,151.034744 
	C168.420258,147.978989 156.562561,144.572113 144.217422,144.027893 
	C141.095184,143.890228 139.465546,144.877090 139.556091,148.160049 
	C140.173416,170.541687 138.254242,192.888260 139.168457,215.306564 
	C140.049957,236.922882 139.012436,258.588593 138.464203,280.234436 
	C137.937180,301.043671 138.344147,321.876617 138.358093,342.699158 
	C138.359299,344.497101 138.051437,346.491760 141.069305,347.214569 
M654.868958,295.439880 
	C658.459717,297.170349 662.117004,298.776367 665.628784,300.654510 
	C676.327209,306.376038 685.772766,313.685852 694.291077,322.387848 
	C700.076477,328.297974 706.223328,333.822845 711.035706,340.621460 
	C711.666382,341.512482 712.627563,342.434082 714.001160,342.056641 
	C715.621582,341.611359 715.869141,340.074799 715.926453,338.857452 
	C716.042419,336.397461 715.721985,333.920135 715.657166,331.447968 
	C715.069702,309.023438 716.691223,286.631958 716.669922,264.214844 
	C716.640747,233.400848 716.595703,202.586548 716.714844,171.772980 
	C716.744385,164.147720 717.976318,156.562973 717.710205,148.894684 
	C717.563293,144.659348 715.441101,143.132797 711.691040,143.693604 
	C692.178223,146.611588 673.148193,151.437546 654.656677,158.364548 
	C629.656921,167.729568 606.655334,180.708374 585.841064,197.348038 
	C578.831238,202.951965 571.276733,207.762268 564.686951,214.134995 
	C557.739136,220.854111 549.720337,226.740021 543.390991,234.047256 
	C530.388000,249.059021 518.168579,264.697540 508.250580,282.085052 
	C501.923218,293.177704 496.606476,304.713806 491.022095,316.143646 
	C490.281067,317.660309 489.152466,319.356018 490.927124,322.252991 
	C539.709595,279.427063 594.409180,271.304688 654.868958,295.439880 
M419.246307,561.856262 
	C399.281128,565.077454 382.410370,573.517395 368.699677,588.962097 
	C358.705444,600.220276 352.413177,613.080444 350.745361,627.411438 
	C348.910217,643.180664 349.346100,659.260010 357.490326,673.973755 
	C362.914612,683.773560 368.994415,693.169128 377.726105,700.160767 
	C396.188416,714.944031 417.245850,721.293091 440.963226,717.661133 
	C457.257050,715.165955 471.387634,707.720947 483.333679,696.964844 
	C492.814423,688.428528 499.050232,677.379211 503.042603,664.805908 
	C506.905365,652.640747 508.608551,640.777527 506.787567,628.133728 
	C503.684845,606.590332 493.195587,589.408813 476.033844,576.651123 
	C459.574341,564.415344 440.578979,559.784668 419.246307,561.856262 
z"/>
<path fill="#000000" opacity="1.000000" stroke="none" 
	d="
M274.425934,438.681915 
	C305.770996,438.555511 349.464996,469.476105 346.669342,489.504059 
	C344.905609,489.540466 344.143951,488.166077 343.159821,487.065826 
	C329.649017,471.961273 313.211426,462.864166 292.556824,462.356750 
	C289.286957,462.276428 286.476166,463.004486 283.705872,464.939484 
	C277.577911,469.219727 267.911560,467.177124 264.547302,460.955536 
	C261.054108,454.495544 261.846954,443.157532 269.500122,440.686584 
	C271.052795,440.185272 272.164917,438.634033 274.425934,438.681915 
z"/>
<path fill="#000000" opacity="1.000000" stroke="none" 
	d="
M570.826416,437.599396 
	C582.229004,434.504974 588.358093,439.049042 591.895752,449.054504 
	C593.355652,453.183563 588.234680,461.614960 583.733398,463.655334 
	C578.485840,466.033936 573.578491,465.157410 569.160828,462.218781 
	C564.963867,459.426971 560.525085,459.954773 556.267212,460.631287 
	C541.958862,462.904724 528.871826,468.243622 517.665833,477.653717 
	C513.352844,481.275513 510.431030,486.165283 506.306519,490.829346 
	C504.990631,485.640656 507.624786,482.186768 509.695465,478.627747 
	C523.324585,455.202667 544.197632,442.476227 570.826416,437.599396 
z"/>
</svg>